<?xml version="1.0" encoding="UTF-8"?>
<svg xmlns="http://www.w3.org/2000/svg" version="1.1" viewBox="0 0 1002 942">
  <defs>
    <style>
      .cls-1 {
        fill: #1d2ed7;
      }
    </style>
  </defs>
  <!-- Generator: Adobe Illustrator 28.7.7, SVG Export Plug-In . SVG Version: 1.2.0 Build 194)  -->
  <g>
    <g id="Verbeterde">
      <path class="cls-1" d="M974.2,383.4c-5.4-14.1-7-27.5-3.8-42.4,10.4-49.4-13.2-100-57.6-122.1-17.4-8.7-30.4-20.5-39-37.6-2.3-4.5-5-8.8-7.5-13.2-29.9-51.8-70.3-93.5-122.1-123.2C677.4,6.7,605.5-6.5,529.4,5.1c-40.2,6.2-76.8,21.2-106.6,49.4-52.1,49.3-68.2,110.8-54.7,179.6,13.8,70.4,56,119.9,120.3,150.7,42.8,20.6,88.6,31,134.5,41,1.5.3,2.9.6,4.1.9.3,0,.6.2.9.2l1.9.4,9.8,1.9,3.5-10.7.5-1.4,3.7-11.3c3.3-10,6.6-20.1,9.9-30.1,1.5,2.3,1.7,4.3,1.5,6.4-1.4,16.4-2.4,32.9-4.4,49.2-2,15.9-7.2,30.9-16.6,44-20,28-49.1,38.9-81.7,41.6-30.3,2.5-58-6.7-83-23-36.8-24-72.9-49-109.2-73.8-33.7-23-67.7-44.9-107.9-55.3-41.6-10.7-82.3-10-121.6,8.4-10.1,4.7-19.1,11.8-28.5,17.8.3.7,5.4.8,6.1.8,4.2.3,4.6.3,6.2.4,49.7,2.1,89.8,16.4,132.4,42.3,27.9,17,52.7,38,77.1,59.6,27.6,24.5,54.4,50.3,84.1,72,90.8,66.3,196.1,64.3,286-3.1,6.1-4.6,12-9.3,18-14,.4.3.8.7,1.2,1-5,7.4-9.2,15.3-14.9,22-48,56.4-109.3,77.8-182,68.5-33.1-4.2-64.3-15.6-95.7-26.5-42.1-14.6-83.9-30.1-126.3-43.5-46.1-14.6-93.4-23.5-142.2-19-47.7,4.5-91.4,19.2-128,51.4-10.3,9-18.7,19.5-26.7,31.6,2.7-.5,5.1-1.1,6.5-1.4,16.5-3.6,32.4-5.7,48.7-10.1,39.6-10.7,79.5-13.7,120.1-7.1,30.9,5,60,15.6,88.2,28.4,44.6,20.2,88.6,41.6,132.9,62.5,48,22.6,97.2,40.5,150.8,44.4,66,4.8,128-8.1,185.7-40.8,56.7-32.1,97.9-79.4,131.5-134.2,1.1-1.8,2.2-3.5,4-6.3,0,2.4.2,3.5,0,4.6-6.3,35.2-19.3,67.6-41.6,95.8-33.2,42.1-76.4,70.2-126.5,88.1-34.5,12.3-70.7,17.4-106.5,24.1-44.1,8.1-86.9,20-125,44.8-32.5,21.2-56,49.3-65.1,87.7-2,8.4-2.5,17.1-3.7,25.7l8.5-7.6c12-10.3,25.1-19.1,37.5-28.9,37.9-29.9,82.7-42,129.4-47.8,32.7-4.1,65.7-5.5,98.4-9.5,80.5-9.8,153.6-38.5,216.6-90.3,54.9-45.2,90.3-102.3,103.7-172.7,13.1-69.1,3.9-135.8-20.8-200.8ZM862.5,343.7c-17.5-9.1-29.6-31.6-27.4-51.2,1.9-17.4,17-26.8,33.5-21,18.1,6.4,32.1,27,32.5,47.9.4,23.6-17.8,35-38.6,24.2Z"/>
    </g>
  </g>
</svg>